<?xml version="1.0" encoding="UTF-8"?>
<svg version="1.1" xmlns="http://www.w3.org/2000/svg" width="1757" height="581">
<path d="M0 0 C0.91557733 2.70458364 1.62641206 5.27803204 2.26171875 8.05078125 C2.45723831 8.86113327 2.65275787 9.67148529 2.85420227 10.50639343 C3.26607058 12.22408591 3.67167525 13.94329037 4.0715332 15.66381836 C4.68325909 18.2942639 5.3134599 20.91971876 5.94726562 23.54492188 C6.34484596 25.21328087 6.74136523 26.88189316 7.13671875 28.55078125 C7.41789803 29.72910271 7.41789803 29.72910271 7.70475769 30.93122864 C8.50854976 34.40673144 9 37.412558 9 41 C-20.74472528 48.59639073 -50.5770578 55.81271161 -80.4375 62.9375 C-81.39663425 63.16635895 -82.35576851 63.3952179 -83.34396744 63.63101196 C-91.4955437 65.57590178 -99.64725797 67.5202133 -107.79913902 69.46382523 C-132.6329435 75.38488569 -157.45935992 81.33668148 -182.28543091 87.29006958 C-194.53848506 90.22837697 -206.79178665 93.16565224 -219.04514623 96.10268569 C-220.34642451 96.41459188 -221.64770215 96.72650077 -222.94897914 97.03841233 C-250.92257824 103.7435665 -278.89845749 110.43918057 -306.87485123 117.13266373 C-347.66852801 126.89276953 -388.46038938 136.66041414 -429.25 146.4375 C-430.50064743 146.73727123 -431.75129486 147.03704247 -433.0398407 147.34589767 C-452.02664491 151.89691285 -471.01333518 156.44840331 -490 161 C-510.24993557 165.85443549 -530.49991234 170.70869901 -550.75 175.5625 C-552.0009697 175.8623518 -553.25193939 176.1622036 -554.54081726 176.47114182 C-594.07115515 185.94631024 -633.60389836 195.41139405 -673.13809204 204.87046051 C-724.09568053 217.06278597 -775.04908929 229.27251228 -826.00137329 241.48698425 C-843.62930042 245.71278638 -861.25744695 249.93767224 -878.8857162 254.16204691 C-934.25947758 267.43164687 -989.63246021 280.70446014 -1045 294 C-1015.6726932 301.04495575 -986.30015961 307.87663431 -956.89717102 314.59812546 C-951.01932767 315.94228707 -945.14200501 317.28872158 -939.26464844 318.63500977 C-931.81272604 320.34186225 -924.36077309 322.04858051 -916.90863037 323.75447083 C-890.29819183 329.84599179 -863.6907738 335.95065816 -837.0838623 342.05756378 C-833.23365713 342.94125096 -829.38343265 343.82485398 -825.53320312 344.70843506 C-786.53353223 353.65853283 -747.53771296 362.62528541 -708.54397583 371.60119629 C-671.42851055 380.14462653 -634.30906225 388.67060219 -597.1875 397.1875 C-560.72692469 405.55277516 -524.26779462 413.92424049 -487.8125 422.3125 C-459.97398781 428.71804248 -432.13442786 435.11899745 -404.29296875 441.51171875 C-403.58626982 441.67398516 -402.87957088 441.83625156 -402.15145683 442.00343513 C-391.26767718 444.50246123 -380.38384273 447.00124862 -369.5 449.5 C-357.90231557 452.1626377 -346.30464428 454.82533256 -334.70703125 457.48828125 C-334.00046324 457.65051744 -333.29389523 457.81275364 -332.56591606 457.97990608 C-304.44702859 464.43639837 -276.33023922 470.90199275 -248.21437454 477.37163544 C-222.78533074 483.22301409 -197.35480446 489.06787482 -171.921875 494.90234375 C-170.95522706 495.12410019 -170.95522706 495.12410019 -169.96905088 495.35033655 C-164.72831278 496.5525983 -159.48756817 497.75483167 -154.24681926 498.95704627 C-113.85230149 508.2234566 -73.4582888 517.49207046 -33.07376099 526.80194092 C-29.09382211 527.71943449 -25.11373603 528.63628508 -21.1335144 529.55255127 C-16.56226071 530.60494252 -11.9913391 531.65876322 -7.42069626 532.71380424 C-5.76656727 533.09540055 -4.11232639 533.47651218 -2.45796585 533.85710335 C-0.22434519 534.37106285 2.00885241 534.88682078 4.24194336 535.40307617 C5.48390976 535.68946457 6.72587616 535.97585297 8.00547791 536.2709198 C11 537 11 537 14 538 C13.39404746 543.42596081 12.51533162 548.65463002 11.2578125 553.96484375 C11.08877411 554.68362198 10.91973572 555.40240021 10.74557495 556.14295959 C10.38994933 557.64512048 10.03186104 559.14670036 9.67138672 560.64770508 C9.12126842 562.95313827 8.58991985 565.26243905 8.05859375 567.57226562 C7.7094785 569.0367318 7.35925824 570.5009351 7.0078125 571.96484375 C6.85144318 572.65642075 6.69507385 573.34799774 6.53396606 574.06053162 C6.05908203 575.98413086 6.05908203 575.98413086 5 579 C1.15615869 580.28128044 -0.81581446 579.55327656 -4.75805664 578.63012695 C-5.45292868 578.46977557 -6.14780071 578.30942419 -6.86372948 578.14421368 C-9.21436222 577.59978047 -11.56214701 577.04391146 -13.91015625 576.48828125 C-15.60798632 576.09284344 -17.30599472 575.69817067 -19.00416565 575.30419922 C-22.71382575 574.44205345 -26.42228922 573.57498371 -30.12994385 572.70425415 C-36.17438407 571.2850045 -42.22143231 569.87710617 -48.26904297 568.47143555 C-50.39135934 567.97805086 -52.51367377 567.4846578 -54.63598633 566.99125671 C-55.70848633 566.74193579 -56.78098633 566.49261486 -57.88598633 566.23573875 C-61.23463924 565.45687736 -64.58304499 564.67696092 -67.93139648 563.89680481 C-92.24774812 558.23295845 -116.58361548 552.65464423 -140.9201355 547.07821655 C-153.29451318 544.24267791 -165.66806301 541.40352991 -178.04162049 538.56441474 C-180.00814128 538.11320581 -181.97466898 537.66202701 -183.94119835 537.21085548 C-211.79705258 530.81992099 -239.64884652 524.41138362 -267.5 518 C-306.93404405 508.92241398 -346.37187086 499.86143184 -385.8125 490.8125 C-423.55058239 482.1541864 -461.28675908 473.48769879 -499.01929474 464.80524445 C-534.73898584 456.58604766 -570.46257842 448.38393063 -606.1875 440.1875 C-646.7870319 430.87267909 -687.38333758 421.54397752 -727.97612762 412.19982147 C-766.25151856 403.38920845 -804.53078089 394.59557566 -842.8125 385.8125 C-878.27888643 377.67532501 -913.74407813 369.53304002 -949.20536423 361.37366486 C-989.71804416 352.0520312 -1030.23325484 342.7414456 -1070.75 333.4375 C-1071.46840246 333.27253053 -1072.18680492 333.10756105 -1072.92697716 332.93759251 C-1126.61435125 320.609203 -1180.30537298 308.2967652 -1234 296 C-1234 295.34 -1234 294.68 -1234 294 C-1182.945799 281.69455273 -1131.89131548 269.39044285 -1080.8125 257.1875 C-1079.90472683 256.97062531 -1078.99695366 256.75375061 -1078.06167221 256.53030396 C-1076.2083147 256.0875244 -1074.35495643 255.64474806 -1072.5015974 255.20197487 C-1067.75626121 254.06829414 -1063.0109377 252.93456032 -1058.265625 251.80078125 C-1057.31053354 251.57259327 -1056.35544209 251.34440529 -1055.37140846 251.10930252 C-1029.88556129 245.01989663 -1004.40470717 238.90965664 -978.92354965 232.80066299 C-967.28372859 230.01008722 -955.64384938 227.21975407 -944.00390625 224.4296875 C-943.03760328 224.19806565 -943.03760328 224.19806565 -942.05177903 223.96176457 C-914.07793319 217.2565265 -886.10179488 210.56087981 -858.12514877 203.86733627 C-817.33147203 194.10723048 -776.53959027 184.33967063 -735.75 174.5625 C-734.49876343 174.26258148 -733.24752686 173.96266296 -731.95837402 173.65365601 C-720.56894094 170.92361252 -709.17953688 168.19344795 -697.79016113 165.46316528 C-680.10501632 161.22365225 -662.41974478 156.98466824 -644.734375 152.74609375 C-643.48694519 152.44712692 -642.23951538 152.1481601 -640.95428467 151.84013367 C-630.87664309 149.42486644 -620.79899377 147.00963152 -610.72134399 144.5943985 C-601.90276733 142.4809164 -593.08419416 140.36741967 -584.265625 138.25390625 C-582.39460114 137.80548622 -582.39460114 137.80548622 -580.48577881 137.3480072 C-562.79349482 133.1077579 -545.10134871 128.86693369 -527.4092865 124.62575912 C-475.22918868 112.11713797 -423.04741035 99.61559496 -370.86190796 87.12953949 C-332.48939042 77.94837067 -294.11875711 68.7593715 -255.75 59.5625 C-254.5061277 59.26434891 -253.2622554 58.96619781 -251.98069 58.65901184 C-238.12347611 55.33747308 -224.2663175 52.01570376 -210.40917969 48.69384766 C-196.60681931 45.3851284 -182.80439295 42.07668447 -169.00191915 38.7684384 C-164.99462679 37.80794419 -160.98734847 36.84739141 -156.98008144 35.88679153 C-143.36033949 32.62195579 -129.74032377 29.3582708 -116.11962891 26.09741211 C-111.20992861 24.92184719 -106.30026342 23.74613579 -101.390625 22.5703125 C-100.20439419 22.28623346 -99.01816338 22.00215443 -97.79598618 21.70946693 C-83.00335918 18.16624045 -68.21505141 14.60581173 -53.43243027 11.02107239 C-48.32018114 9.7820976 -43.20701361 8.54691774 -38.0938282 7.31181335 C-33.54775925 6.21308833 -29.00347109 5.10737517 -24.46053314 3.99577904 C-22.41557754 3.49666565 -20.36979263 3.00115166 -18.32354736 2.50735474 C-15.90645335 1.92402194 -13.49075582 1.33485615 -11.07684326 0.73849487 C-9.52311005 0.36641403 -9.52311005 0.36641403 -7.93798828 -0.01318359 C-7.04830353 -0.22993744 -6.15861877 -0.44669128 -5.24197388 -0.67001343 C-3 -1 -3 -1 0 0 Z " fill="#0000FF" transform="translate(1743,1)"/>
<path d="M0 0 C0.66 0 1.32 0 2 0 C2.3810791 0.66193359 2.7621582 1.32386719 3.15478516 2.00585938 C11.8133358 17.04126312 20.51178238 32.0523193 29.26611328 47.03222656 C32.1801084 52.01990957 35.08982568 57.01008705 38 62 C39.16664643 64.0000118 40.33331309 66.00001181 41.5 68 C104.50000001 176.00000001 104.50000001 176.00000001 106.24926758 178.9987793 C107.41833519 181.00287191 108.58744339 183.00694085 109.7565918 185.01098633 C112.63685396 189.94817795 115.51645665 194.88575155 118.39453125 199.82421875 C124.74834042 210.72479044 131.11654957 221.61676957 137.5 232.5 C144.45044933 244.34991449 151.38105772 256.21125249 158.29833984 268.08056641 C161.19752026 273.0545118 164.09888692 278.0271817 167 283 C168.16667678 284.9999941 169.33334346 286.99999409 170.5 289 C171.36625 290.485 171.36625 290.485 172.25 292 C233.5 396.99999999 233.5 396.99999999 235.24926758 399.9987793 C236.41833519 402.00287191 237.58744339 404.00694085 238.7565918 406.01098633 C241.63685396 410.94817795 244.51645665 415.88575155 247.39453125 420.82421875 C253.74834042 431.72479044 260.11654957 442.61676957 266.5 453.5 C272.86571675 464.35299604 279.21747801 475.21398179 285.55078125 486.0859375 C288.02045952 490.32437173 290.49852134 494.55780157 292.98046875 498.7890625 C293.63184814 499.90112061 294.28322754 501.01317871 294.9543457 502.15893555 C296.2128728 504.30724626 297.47306638 506.45458178 298.73510742 508.60083008 C299.29431885 509.55626709 299.85353027 510.5117041 300.4296875 511.49609375 C301.17581299 512.76731079 301.17581299 512.76731079 301.93701172 514.06420898 C303 516 303 516 303 517 C103.68 517 -95.64 517 -301 517 C-295.38091068 505.76182137 -295.38091068 505.76182137 -292.5390625 501.03125 C-291.9107251 499.97953613 -291.2823877 498.92782227 -290.63500977 497.84423828 C-289.97170654 496.74063965 -289.30840332 495.63704102 -288.625 494.5 C-287.18636434 492.09259607 -285.7510244 489.68323729 -284.31640625 487.2734375 C-283.95379196 486.66474823 -283.59117767 486.05605896 -283.21757507 485.42892456 C-279.60837317 479.36068879 -276.07897843 473.24737699 -272.5625 467.125 C-267.23098507 457.84905391 -261.85445332 448.60119555 -256.4375 439.375 C-256.07958374 438.76534393 -255.72166748 438.15568787 -255.35290527 437.52755737 C-253.92653308 435.09804312 -252.50014238 432.66853974 -251.0736084 430.23912048 C-245.93011252 421.47729268 -240.8173958 412.69748705 -235.70166016 403.91943359 C-232.80247974 398.9454882 -229.90111308 393.9728183 -227 389 C-225.83332322 387.0000059 -224.66665654 385.00000591 -223.5 383 C-202.5 347 -181.5 311 -160.5 275 C-159.9227417 274.01040283 -159.3454834 273.02080566 -158.75073242 272.0012207 C-157.58166481 269.99712809 -156.41255661 267.99305915 -155.2434082 265.98901367 C-152.36314604 261.05182205 -149.48354335 256.11424845 -146.60546875 251.17578125 C-139.89020248 239.65509508 -133.15717593 228.14499527 -126.4105835 216.64263916 C-119.82353648 205.41169995 -113.25753061 194.16860387 -106.70166016 182.91943359 C-103.80247974 177.9454882 -100.90111308 172.9728183 -98 168 C-96.83332322 166.0000059 -95.66665654 164.00000591 -94.5 162 C-10.25390625 17.578125 -10.25390625 17.578125 -8.65673828 14.85351562 C-7.45755726 12.78808271 -6.27582142 10.71248848 -5.10498047 8.63085938 C-4.48123535 7.53064453 -3.85749023 6.43042969 -3.21484375 5.296875 C-2.36394165 3.77852051 -2.36394165 3.77852051 -1.49584961 2.22949219 C-1.00221924 1.49375977 -0.50858887 0.75802734 0 0 Z M0 86 C-1.35283265 87.97235414 -2.55907019 89.93078286 -3.75 92 C-4.13776611 92.66008057 -4.52553223 93.32016113 -4.92504883 94.00024414 C-6.29059848 96.32933953 -7.64495981 98.66477611 -9 101 C-10.07098637 102.83239857 -11.14263201 104.66441193 -12.21484375 106.49609375 C-15.20663689 111.61170121 -18.18911517 116.73268141 -21.16943359 121.85498047 C-24.10913111 126.90555175 -27.05478069 131.95264746 -30 137 C-31.16669705 138.99998228 -32.33336367 140.9999823 -33.5 143 C-54.5 179 -75.5 215 -96.5 251 C-97.0772583 251.98959717 -97.6545166 252.97919434 -98.24926758 253.9987793 C-99.41833519 256.00287191 -100.58744339 258.00694085 -101.7565918 260.01098633 C-104.63685396 264.94817795 -107.51645665 269.88575155 -110.39453125 274.82421875 C-117.10979752 286.34490492 -123.84282407 297.85500473 -130.5894165 309.35736084 C-137.17646352 320.58830005 -143.74246939 331.83139613 -150.29833984 343.08056641 C-153.19752026 348.0545118 -156.09888692 353.0271817 -159 358 C-160.16667678 359.9999941 -161.33334346 361.99999409 -162.5 364 C-197.5 424 -197.5 424 -199.25219727 427.00366211 C-200.4116613 428.99138416 -201.57100497 430.97917643 -202.73022461 432.96704102 C-205.75607699 438.15549416 -208.78439413 443.34248745 -211.81640625 448.52734375 C-212.44353516 449.60048828 -213.07066406 450.67363281 -213.71679688 451.77929688 C-214.90872378 453.81881625 -216.10138009 455.85790962 -217.29492188 457.89648438 C-217.83826172 458.82654297 -218.38160156 459.75660156 -218.94140625 460.71484375 C-219.41263916 461.52042725 -219.88387207 462.32601074 -220.36938477 463.15600586 C-222.61989274 467.08116941 -224.80267664 471.04481794 -227 475 C-76.52 475 73.96 475 229 475 C225.04 468.07 225.04 468.07 221 461 C219.7728125 458.84082031 218.545625 456.68164062 217.28125 454.45703125 C209.95188018 441.56881025 202.52168457 428.75326947 194.93603516 416.01367188 C189.71717657 407.23934611 184.59553207 398.41225483 179.50585938 389.5625 C173.62131108 379.33119897 167.67604368 369.13601287 161.72070312 358.94580078 C160.01522032 356.02605681 158.31189123 353.1050684 156.609375 350.18359375 C150.25489011 339.28005116 143.8849208 328.38573729 137.5 317.5 C130.54955067 305.65008551 123.61894228 293.78874751 116.70166016 281.91943359 C113.80247974 276.9454882 110.90111308 271.9728183 108 267 C106.83332322 265.0000059 105.66665654 263.00000591 104.5 261 C103.9225 260.01 103.345 259.02 102.75 258 C41.5 153 41.5 153 39.75024414 150.00024414 C38.58296604 147.99931227 37.4154854 145.99849854 36.24780273 143.99780273 C33.3388227 139.01300699 30.43333659 134.02623974 27.53515625 129.03515625 C24.03756033 123.01512326 20.52365474 117.00481358 17 111 C16.66836853 110.43383972 16.33673706 109.86767944 15.99505615 109.28436279 C13.59184639 105.18250556 11.17384035 101.08970199 8.75 97 C8.10554932 95.90051025 7.46109863 94.80102051 6.79711914 93.66821289 C6.19891357 92.66395264 5.60070801 91.65969238 4.984375 90.625 C4.19111816 89.28308594 4.19111816 89.28308594 3.38183594 87.9140625 C2.92583008 87.28242187 2.46982422 86.65078125 2 86 C1.34 86 0.68 86 0 86 Z " fill="#0000FF" transform="translate(301,29)"/>
</svg>
